<svg width="189" height="38" viewBox="0 0 189 38" fill="none" xmlns="http://www.w3.org/2000/svg">
<path d="M23.625 0.000824544C21.3264 0.0250166 19.6293 0.498644 17.0056 1.39976C12.8945 3.83208 13.8831 4.32648 16.8718 4.06429L22.2209 4.19751C30.0771 3.95948 28.6418 0.330118 26.1881 0.134079C25.229 0.0429153 24.3912 -0.00713448 23.625 0.000824544ZM34.3455 1.57738C29.7732 1.50775 27.0493 3.30727 31.6264 6.99526L39.806 13.5678C41.4796 15.6001 40.0653 17.1109 38.5356 15.8548L29.8433 8.48293C24.3538 3.00679 15.0426 16.8067 20.1927 19.0301C27.578 22.1243 33.0682 25.4253 26.1658 29.777C22.9257 30.4543 24.2462 27.7394 25.9653 26.2243C28.8885 23.6478 15.0598 16.1963 15.0888 28.4225C15.3018 32.2949 14.6641 35.0672 18.2314 35.1505L29.1078 35.3947C31.7175 35.4452 32.1683 33.1216 32.6739 30.8429C33.3956 29.4805 34.1141 29.8032 34.8358 30.5764C35.2561 32.2231 34.0293 35.1504 36.9977 35.2837C46.76 35.7221 46.0758 21.702 35.9948 23.0935L27.9712 16.4987C26.7943 14.6673 28.014 13.7414 29.7542 14.7224L36.3291 19.5852C42.8662 24.0273 44.6192 17.3886 43.6395 14.456L41.7228 10.5257C40.7997 9.13927 42.1974 8.21081 43.1269 9.90403C47.3964 16.8243 45.6418 16.5438 45.1551 19.9183C44.5362 24.209 45.5165 28.1591 46.2918 30.7096C47.9385 34.0417 50.9479 29.4728 51.9083 27.5343C53.2763 24.2789 54.5654 20.5225 52.9335 17.387C52.3495 15.7035 51.2632 15.5567 50.3704 17.2537C49.2778 21.0419 46.0956 19.6305 47.4507 17.387C54.738 6.99796 41.966 1.69341 34.3455 1.57738ZM13.7515 5.41871C12.1672 5.47696 10.5937 5.74407 9.11566 6.39571C7.20094 7.23991 6.69201 9.39291 6.44112 11.3029C6.27403 12.5749 7.16274 12.528 8.04584 12.4353C9.2648 12.3073 11.6748 13.4691 10.6981 14.5669C9.79294 15.5844 8.11562 16.0209 6.70857 15.433C5.68309 15.0044 5.16441 13.6253 4.07861 13.6788C2.55722 13.7537 1.762 15.3891 1.22577 16.632C-0.0286217 19.5393 -0.145681 22.8432 0.111374 26.0244C0.372473 29.2558 2.05677 32.7117 5.23758 33.8404C7.14308 34.5165 9.40959 34.5958 11.2553 33.685C13.7086 32.3671 12.9689 27.6352 13.3281 24.7588C13.5174 23.4471 13.8837 21.4024 12.236 21.0062C10.9459 20.6961 9.56109 21.0282 8.29101 21.4281C7.01796 21.829 5.99456 23.1511 6.90916 24.3813C7.36788 24.9983 7.50596 25.5614 7.5778 26.3575C7.7123 27.8482 6.15329 26.8068 5.52732 26.3795C4.13517 25.4296 3.73238 23.0562 4.90326 21.7387C6.86276 19.534 9.94553 18.8614 12.7263 18.2527C13.9776 17.9787 14.9845 17.3965 15.7351 16.5208C17.4954 14.4672 18.6094 11.6379 19.8584 9.21545C20.5728 7.82982 20.1923 5.84235 18.4988 5.66272C16.9462 5.49809 15.3359 5.36061 13.7515 5.41853V5.41871Z" fill="#4BC3F0"/>
<path d="M89.8687 29.0694H86.0486V11.9031C86.0486 11.0529 86.1299 7.36857 86.1299 4.65596H86.0486L77.8396 29.0694H73.9383L65.7292 4.69645H65.6479C65.6479 7.36857 65.7292 11.0529 65.7292 11.9031V29.0694H61.9092V0H67.558L75.8889 24.5754H75.9702L84.2605 0H89.8687V29.0694ZM100.313 16.5995V29.0694H96.3709V0H109.863C114.658 0 119.454 1.65995 119.454 7.81392C119.454 12.1055 117.259 13.6845 115.39 14.7776C117.056 15.4659 118.722 16.1947 118.885 20.2433L119.129 25.5066C119.169 27.1261 119.372 27.7334 120.592 28.4216V29.0694H115.756C115.187 27.288 115.065 22.875 115.065 21.7818C115.065 19.3931 114.577 16.5995 109.863 16.5995H100.313ZM100.313 3.36039V13.2391H109.457C112.342 13.2391 115.39 12.5104 115.39 8.21879C115.39 3.72477 112.098 3.36039 110.147 3.36039H100.313ZM129.776 0V29.0694H125.834V0H129.776ZM136.075 29.0694V7.8949H139.448V10.8909H139.529C140.301 9.75728 142.13 7.2876 145.95 7.2876C149.77 7.2876 150.989 9.59533 151.599 10.729C153.387 8.74511 154.809 7.2876 158.101 7.2876C160.377 7.2876 164.685 8.46171 164.685 14.4132V29.0694H161.108V15.3849C161.108 12.4699 160.214 10.486 157.166 10.486C154.159 10.486 152.168 13.3201 152.168 16.1542V29.0694H148.592V14.4132C148.592 12.6318 147.901 10.486 145.259 10.486C143.227 10.486 139.651 11.7816 139.651 17.5307V29.0694H136.075ZM184.394 22.4296H187.971C187.849 23.4418 186.873 26.4378 184.191 28.2192C183.216 28.867 181.834 29.6767 178.421 29.6767C172.447 29.6767 168.911 25.1827 168.911 19.0692C168.911 12.5104 172.081 7.2876 179.111 7.2876C185.248 7.2876 188.255 12.146 188.255 19.636H172.731C172.731 24.0491 174.804 26.5997 178.908 26.5997C182.281 26.5997 184.273 24.0086 184.394 22.4296ZM172.731 16.802H184.557C184.354 13.5225 182.972 10.486 178.624 10.486C175.332 10.486 172.731 13.5225 172.731 16.802Z" fill="#F9F9F9"/>
<path d="M65.2728 37.9371L63.4276 35.3573L62.4644 36.2608V37.9371H61.9077V33.5004H62.4644V35.5131L64.6098 33.5004H65.4104L63.8529 34.9647L65.9796 37.9371H65.2728ZM74.0094 37.9371L71.6263 34.4288V37.9371H71.0634V33.5004H71.6764L74.0532 37.0086V33.5004H74.6161V37.9371H74.0094ZM82.0768 33.3633C83.359 33.3633 84.4098 34.4039 84.4098 35.6876C84.4098 36.965 83.359 37.9994 82.0768 37.9994C80.7946 37.9994 79.75 36.965 79.75 35.6876C79.75 34.4039 80.7946 33.3633 82.0768 33.3633ZM82.0768 37.451C83.0525 37.451 83.8406 36.6534 83.8406 35.6876C83.8406 34.7155 83.0525 33.9116 82.0768 33.9116C81.101 33.9116 80.3129 34.7155 80.3129 35.6876C80.3129 36.6534 81.101 37.451 82.0768 37.451ZM93.4842 37.9371L92.1707 35.6502L90.8634 37.9371H90.263L89.0183 33.5004H89.6062L90.6383 37.208L91.858 35.0769H92.4897L93.7031 37.208L94.7414 33.5004H95.3293L94.0846 37.9371H93.4842ZM107.48 37.9371V35.6938L105.91 33.5004H106.598L107.768 35.1267L108.937 33.5004H109.619L108.049 35.6938V37.9371H107.48ZM116.454 33.3633C117.736 33.3633 118.787 34.4039 118.787 35.6876C118.787 36.965 117.736 37.9994 116.454 37.9994C115.172 37.9994 114.127 36.965 114.127 35.6876C114.127 34.4039 115.172 33.3633 116.454 33.3633ZM116.454 37.451C117.43 37.451 118.218 36.6534 118.218 35.6876C118.218 34.7155 117.43 33.9116 116.454 33.9116C115.478 33.9116 114.69 34.7155 114.69 35.6876C114.69 36.6534 115.478 37.451 116.454 37.451ZM126.654 33.5004H127.217V36.3107C127.217 37.2454 126.454 37.9994 125.516 37.9994C124.584 37.9994 123.821 37.2454 123.821 36.3107V33.5004H124.378V36.3107C124.378 36.9401 124.891 37.4573 125.516 37.4573C126.148 37.4573 126.654 36.9401 126.654 36.3107V33.5004ZM134.321 35.5754L136.041 37.9371H135.397L133.696 35.6066H133.058V37.9371H132.52V33.5004H134.065C134.346 33.5004 134.609 33.6125 134.809 33.8119C135.009 34.0113 135.122 34.2731 135.122 34.5535C135.122 35.0457 134.778 35.457 134.321 35.5754ZM133.058 34.0363V35.0707H134.065C134.353 35.0707 134.584 34.8401 134.584 34.5535C134.584 34.2668 134.353 34.0363 134.065 34.0363H133.058ZM146.866 37.9371V33.5004H148.467C148.749 33.5004 149.018 33.6125 149.212 33.8119C149.412 34.0051 149.524 34.2731 149.524 34.5535C149.524 34.7716 149.462 34.9772 149.337 35.1517L149.33 35.1579L149.337 35.1641C149.512 35.2327 149.674 35.3386 149.806 35.4757C150.081 35.7436 150.231 36.1051 150.231 36.4914C150.231 36.8715 150.081 37.2329 149.806 37.5071C149.537 37.7751 149.174 37.9371 148.792 37.9371H146.866ZM147.423 37.3949H148.792C149.28 37.3825 149.674 36.9712 149.674 36.4914C149.674 36.0054 149.28 35.6066 148.792 35.6003H147.423V37.3949ZM147.423 35.0582H148.467C148.742 35.052 148.968 34.8276 148.968 34.5535C148.968 34.2793 148.749 34.055 148.467 34.0425H147.423V35.0582ZM157.097 35.5754L158.818 37.9371H158.173L156.472 35.6066H155.834V37.9371H155.296V33.5004H156.841C157.123 33.5004 157.385 33.6125 157.585 33.8119C157.786 34.0113 157.898 34.2731 157.898 34.5535C157.898 35.0457 157.554 35.457 157.097 35.5754ZM155.834 34.0363V35.0707H156.841C157.129 35.0707 157.36 34.8401 157.36 34.5535C157.36 34.2668 157.129 34.0363 156.841 34.0363H155.834ZM166.797 37.9371L166.303 36.6472H164.483L163.989 37.9371H163.389L165.102 33.5004H165.684L167.404 37.9371H166.797ZM166.084 36.0988L165.396 34.3042L164.702 36.0988H166.084ZM172.55 37.9371V33.5004H173.113V37.9371H172.55ZM181.706 37.9371L179.323 34.4288V37.9371H178.76V33.5004H179.373L181.75 37.0086V33.5004H182.313V37.9371H181.706ZM187.903 37.2267C188.097 37.2267 188.254 37.3887 188.254 37.5819C188.254 37.7751 188.097 37.9371 187.903 37.9371C187.703 37.9371 187.547 37.7751 187.547 37.5819C187.547 37.3887 187.703 37.2267 187.903 37.2267Z" fill="#F9F9F9"/>
</svg>
